<svg xmlns="http://www.w3.org/2000/svg" xmlns:xlink="http://www.w3.org/1999/xlink" width="300" zoomAndPan="magnify" viewBox="0 0 224.87999 112.499997" height="150" preserveAspectRatio="xMidYMid meet" version="1.0"><defs><g/><clipPath id="e83f7986c2"><path d="M 0.4375 0 L 224.324219 0 L 224.324219 112.003906 L 0.4375 112.003906 Z M 0.4375 0 " clip-rule="nonzero"/></clipPath><clipPath id="9841dbf394"><path d="M 181 0.925781 L 215.773438 0.925781 L 215.773438 111.433594 L 181 111.433594 Z M 181 0.925781 " clip-rule="nonzero"/></clipPath><clipPath id="925c231998"><path d="M 9.101562 0.5625 L 43 0.5625 L 43 111.070312 L 9.101562 111.070312 Z M 9.101562 0.5625 " clip-rule="nonzero"/></clipPath></defs><g clip-path="url(#e83f7986c2)"><path fill="#ffffff" d="M 0.4375 0 L 224.441406 0 L 224.441406 112.003906 L 0.4375 112.003906 Z M 0.4375 0 " fill-opacity="1" fill-rule="nonzero"/><path fill="#ffffff" d="M 0.4375 0 L 224.441406 0 L 224.441406 112.003906 L 0.4375 112.003906 Z M 0.4375 0 " fill-opacity="1" fill-rule="nonzero"/></g><g clip-path="url(#9841dbf394)"><path fill="#8c52ff" d="M 184.953125 99.113281 L 181.875 99.113281 L 181.875 111.433594 L 184.953125 111.433594 C 195.160156 111.433594 203.433594 103.160156 203.433594 92.957031 L 203.433594 71.398438 C 203.433594 69.457031 204.34375 67.632812 205.894531 66.46875 L 213.285156 60.925781 C 214.765625 59.816406 215.667969 58.101562 215.746094 56.253906 C 215.820312 54.40625 215.066406 52.621094 213.683594 51.394531 L 205.5 44.121094 C 204.183594 42.953125 203.433594 41.277344 203.433594 39.519531 L 203.433594 19.042969 C 203.433594 8.835938 195.160156 0.5625 184.953125 0.5625 L 181.875 0.5625 L 181.875 12.882812 L 184.953125 12.882812 C 188.355469 12.882812 191.113281 15.640625 191.113281 19.042969 L 191.113281 39.519531 C 191.113281 44.796875 193.371094 49.824219 197.316406 53.328125 L 199.863281 55.59375 L 198.503906 56.613281 C 193.851562 60.105469 191.113281 65.582031 191.113281 71.398438 L 191.113281 92.957031 C 191.113281 96.355469 188.355469 99.113281 184.953125 99.113281 Z M 184.953125 99.113281 " fill-opacity="1" fill-rule="evenodd"/></g><g fill="#000000" fill-opacity="1"><g transform="translate(57.188731, 76.878375)"><g><path d="M 20.1875 -50.234375 L 27.03125 -50.234375 L 46.484375 0 L 35.140625 0 L 32.109375 -8.328125 L 15.09375 -8.328125 L 12.15625 0 L 0.734375 0 Z M 28.796875 -17.609375 L 23.640625 -32.109375 L 18.421875 -17.609375 Z M 28.796875 -17.609375 "/></g></g></g><g fill="#000000" fill-opacity="1"><g transform="translate(104.398562, 76.878375)"><g><path d="M 5.53125 -50.234375 L 11.046875 -50.234375 L 31.375 -23.5 L 51.484375 -50.234375 L 57.015625 -50.234375 L 57.015625 0 L 46.25 0 L 46.25 -27.46875 L 33.359375 -10.453125 L 29.09375 -10.453125 L 16.28125 -27.40625 L 16.28125 0 L 5.53125 0 Z M 5.53125 -50.234375 "/></g></g></g><g clip-path="url(#925c231998)"><path fill="#8c52ff" d="M 39.921875 12.882812 L 43 12.882812 L 43 0.5625 L 39.921875 0.5625 C 29.714844 0.5625 21.441406 8.835938 21.441406 19.042969 L 21.441406 40.601562 C 21.441406 42.539062 20.53125 44.363281 18.980469 45.527344 L 11.585938 51.070312 C 10.109375 52.179688 9.207031 53.894531 9.128906 55.742188 C 9.050781 57.589844 9.808594 59.375 11.191406 60.601562 L 19.375 67.875 C 20.691406 69.042969 21.441406 70.71875 21.441406 72.480469 L 21.441406 92.957031 C 21.441406 103.160156 29.714844 111.433594 39.921875 111.433594 L 43 111.433594 L 43 99.113281 L 39.921875 99.113281 C 36.519531 99.113281 33.761719 96.355469 33.761719 92.957031 L 33.761719 72.480469 C 33.761719 67.199219 31.503906 62.171875 27.558594 58.667969 L 25.011719 56.402344 L 26.371094 55.382812 C 31.023438 51.890625 33.761719 46.417969 33.761719 40.601562 L 33.761719 19.042969 C 33.761719 15.640625 36.519531 12.882812 39.921875 12.882812 Z M 39.921875 12.882812 " fill-opacity="1" fill-rule="evenodd"/></g></svg>