<svg xmlns="http://www.w3.org/2000/svg" xmlns:xlink="http://www.w3.org/1999/xlink" width="279" zoomAndPan="magnify" viewBox="0 0 209.25 36.750001" height="49" preserveAspectRatio="xMidYMid meet" version="1.0"><defs><g/><clipPath id="82e7ee552a"><path d="M 0.335938 0 L 208.171875 0 L 208.171875 36.5 L 0.335938 36.5 Z M 0.335938 0 " clip-rule="nonzero"/></clipPath><clipPath id="42c18d345f"><path d="M 48 2.71875 L 58.171875 2.71875 L 58.171875 34.007812 L 48 34.007812 Z M 48 2.71875 " clip-rule="nonzero"/></clipPath><clipPath id="71c910b76e"><path d="M 0.335938 2.980469 L 10 2.980469 L 10 34.269531 L 0.335938 34.269531 Z M 0.335938 2.980469 " clip-rule="nonzero"/></clipPath></defs><g clip-path="url(#82e7ee552a)"><path fill="#ffffff" d="M 0.335938 0 L 208.171875 0 L 208.171875 36.5 L 0.335938 36.5 Z M 0.335938 0 " fill-opacity="1" fill-rule="nonzero"/></g><g clip-path="url(#42c18d345f)"><path fill="#8c52ff" d="M 49.546875 30.558594 L 48.683594 30.558594 L 48.683594 34.007812 L 49.546875 34.007812 C 52.402344 34.007812 54.71875 31.691406 54.71875 28.835938 L 54.71875 22.804688 C 54.71875 22.261719 54.972656 21.75 55.40625 21.425781 L 57.476562 19.871094 C 57.890625 19.5625 58.144531 19.082031 58.164062 18.566406 C 58.1875 18.046875 57.972656 17.550781 57.585938 17.207031 L 55.296875 15.171875 C 54.929688 14.84375 54.71875 14.375 54.71875 13.882812 L 54.71875 8.152344 C 54.71875 5.296875 52.402344 2.980469 49.546875 2.980469 L 48.683594 2.980469 L 48.683594 6.425781 L 49.546875 6.425781 C 50.5 6.425781 51.269531 7.199219 51.269531 8.152344 L 51.269531 13.882812 C 51.269531 15.359375 51.902344 16.765625 53.007812 17.746094 L 53.71875 18.378906 L 53.339844 18.667969 C 52.039062 19.644531 51.269531 21.175781 51.269531 22.804688 L 51.269531 28.835938 C 51.269531 29.789062 50.5 30.558594 49.546875 30.558594 Z M 49.546875 30.558594 " fill-opacity="1" fill-rule="evenodd"/></g><g fill="#000000" fill-opacity="1"><g transform="translate(13.792988, 24.338637)"><g><path d="M 5.640625 -14.0625 L 7.5625 -14.0625 L 13 0 L 9.828125 0 L 8.984375 -2.328125 L 4.21875 -2.328125 L 3.40625 0 L 0.203125 0 Z M 8.0625 -4.921875 L 6.609375 -8.984375 L 5.15625 -4.921875 Z M 8.0625 -4.921875 "/></g></g></g><g fill="#000000" fill-opacity="1"><g transform="translate(27.005943, 24.338637)"><g><path d="M 1.546875 -14.0625 L 3.09375 -14.0625 L 8.78125 -6.578125 L 14.40625 -14.0625 L 15.953125 -14.0625 L 15.953125 0 L 12.9375 0 L 12.9375 -7.6875 L 9.34375 -2.921875 L 8.140625 -2.921875 L 4.546875 -7.671875 L 4.546875 0 L 1.546875 0 Z M 1.546875 -14.0625 "/></g></g></g><g clip-path="url(#71c910b76e)"><path fill="#8c52ff" d="M 8.960938 6.425781 L 9.824219 6.425781 L 9.824219 2.980469 L 8.960938 2.980469 C 6.105469 2.980469 3.789062 5.296875 3.789062 8.152344 L 3.789062 14.183594 C 3.789062 14.726562 3.535156 15.238281 3.097656 15.5625 L 1.03125 17.113281 C 0.617188 17.425781 0.363281 17.90625 0.34375 18.421875 C 0.320312 18.9375 0.535156 19.4375 0.921875 19.78125 L 3.210938 21.816406 C 3.578125 22.144531 3.789062 22.613281 3.789062 23.105469 L 3.789062 28.835938 C 3.789062 31.691406 6.105469 34.007812 8.960938 34.007812 L 9.824219 34.007812 L 9.824219 30.558594 L 8.960938 30.558594 C 8.007812 30.558594 7.238281 29.789062 7.238281 28.835938 L 7.238281 23.105469 C 7.238281 21.628906 6.605469 20.222656 5.5 19.242188 L 4.789062 18.605469 L 5.167969 18.320312 C 6.46875 17.34375 7.238281 15.8125 7.238281 14.183594 L 7.238281 8.152344 C 7.238281 7.199219 8.007812 6.425781 8.960938 6.425781 Z M 8.960938 6.425781 " fill-opacity="1" fill-rule="evenodd"/></g><g fill="#8c52ff" fill-opacity="1"><g transform="translate(66.447145, 24.066909)"><g><path d="M 5.359375 -12.96875 L 5.734375 -12.96875 L 10.53125 0 L 9.078125 0 L 7.890625 -3.3125 L 3.125 -3.3125 L 1.9375 0 L 0.5625 0 Z M 7.46875 -4.53125 L 5.5 -9.984375 L 3.546875 -4.53125 Z M 7.46875 -4.53125 "/></g></g></g><g fill="#8c52ff" fill-opacity="1"><g transform="translate(77.532857, 24.066909)"><g><path d="M 1.6875 -12.59375 L 3 -12.59375 L 3 -1.21875 L 8.078125 -1.21875 L 8.078125 0 L 1.6875 0 Z M 1.6875 -12.59375 "/></g></g></g><g fill="#8c52ff" fill-opacity="1"><g transform="translate(86.45779, 24.066909)"><g><path d="M 1.6875 -12.59375 L 8.171875 -12.59375 L 8.171875 -11.375 L 3 -11.375 L 3 -7.140625 L 6.953125 -7.140625 L 6.953125 -5.921875 L 3 -5.921875 L 3 -1.21875 L 8.265625 -1.21875 L 8.265625 0 L 1.6875 0 Z M 1.6875 -12.59375 "/></g></g></g><g fill="#8c52ff" fill-opacity="1"><g transform="translate(95.852458, 24.066909)"><g><path d="M 3.203125 0.1875 C 1.929688 0.1875 0.957031 -0.367188 0.28125 -1.484375 L 1.296875 -2.328125 C 1.796875 -1.460938 2.441406 -1.03125 3.234375 -1.03125 C 3.859375 -1.03125 4.351562 -1.257812 4.71875 -1.71875 C 5.082031 -2.1875 5.265625 -2.828125 5.265625 -3.640625 L 5.265625 -11.375 L 1.59375 -11.375 L 1.59375 -12.59375 L 6.578125 -12.59375 L 6.578125 -3.640625 C 6.578125 -3.066406 6.492188 -2.546875 6.328125 -2.078125 C 6.171875 -1.609375 5.941406 -1.203125 5.640625 -0.859375 C 5.347656 -0.523438 4.992188 -0.265625 4.578125 -0.078125 C 4.160156 0.0976562 3.703125 0.1875 3.203125 0.1875 Z M 3.203125 0.1875 "/></g></g></g><g fill="#8c52ff" fill-opacity="1"><g transform="translate(104.025818, 24.066909)"><g><path d="M 7.234375 0.1875 C 6.367188 0.1875 5.550781 0.0195312 4.78125 -0.3125 C 4.019531 -0.65625 3.351562 -1.117188 2.78125 -1.703125 C 2.21875 -2.296875 1.769531 -2.984375 1.4375 -3.765625 C 1.101562 -4.546875 0.9375 -5.390625 0.9375 -6.296875 C 0.9375 -7.179688 1.101562 -8.019531 1.4375 -8.8125 C 1.769531 -9.601562 2.21875 -10.289062 2.78125 -10.875 C 3.351562 -11.46875 4.019531 -11.929688 4.78125 -12.265625 C 5.550781 -12.609375 6.367188 -12.78125 7.234375 -12.78125 C 8.097656 -12.78125 8.910156 -12.609375 9.671875 -12.265625 C 10.441406 -11.929688 11.109375 -11.46875 11.671875 -10.875 C 12.242188 -10.289062 12.695312 -9.609375 13.03125 -8.828125 C 13.363281 -8.046875 13.53125 -7.203125 13.53125 -6.296875 C 13.53125 -5.410156 13.363281 -4.570312 13.03125 -3.78125 C 12.695312 -3 12.242188 -2.3125 11.671875 -1.71875 C 11.109375 -1.132812 10.441406 -0.671875 9.671875 -0.328125 C 8.910156 0.015625 8.097656 0.1875 7.234375 0.1875 Z M 7.234375 -1.109375 C 7.921875 -1.109375 8.566406 -1.238281 9.171875 -1.5 C 9.773438 -1.769531 10.289062 -2.132812 10.71875 -2.59375 C 11.15625 -3.0625 11.5 -3.609375 11.75 -4.234375 C 12 -4.867188 12.125 -5.554688 12.125 -6.296875 C 12.125 -7.035156 12 -7.71875 11.75 -8.34375 C 11.5 -8.976562 11.15625 -9.53125 10.71875 -10 C 10.289062 -10.46875 9.773438 -10.832031 9.171875 -11.09375 C 8.566406 -11.351562 7.921875 -11.484375 7.234375 -11.484375 C 6.535156 -11.484375 5.890625 -11.351562 5.296875 -11.09375 C 4.703125 -10.832031 4.1875 -10.46875 3.75 -10 C 3.3125 -9.53125 2.96875 -8.976562 2.71875 -8.34375 C 2.46875 -7.71875 2.34375 -7.035156 2.34375 -6.296875 C 2.34375 -5.554688 2.46875 -4.867188 2.71875 -4.234375 C 2.96875 -3.609375 3.3125 -3.0625 3.75 -2.59375 C 4.1875 -2.132812 4.703125 -1.769531 5.296875 -1.5 C 5.890625 -1.238281 6.535156 -1.109375 7.234375 -1.109375 Z M 7.234375 -1.109375 "/></g></g></g><g fill="#000000" fill-opacity="1"><g transform="translate(118.497406, 24.066909)"><g/></g></g><g fill="#000000" fill-opacity="1"><g transform="translate(122.63106, 24.066909)"><g><path d="M 1.6875 -12.96875 L 2.0625 -12.96875 L 7.65625 -5.0625 L 13.15625 -12.96875 L 13.53125 -12.96875 L 13.53125 0 L 12.21875 0 L 12.21875 -9.421875 L 7.796875 -3.09375 L 7.421875 -3.09375 L 3 -9.328125 L 3 0 L 1.6875 0 Z M 1.6875 -12.96875 "/></g></g></g><g fill="#000000" fill-opacity="1"><g transform="translate(137.850426, 24.066909)"><g><path d="M 7.234375 0.1875 C 6.367188 0.1875 5.550781 0.0195312 4.78125 -0.3125 C 4.019531 -0.65625 3.351562 -1.117188 2.78125 -1.703125 C 2.21875 -2.296875 1.769531 -2.984375 1.4375 -3.765625 C 1.101562 -4.546875 0.9375 -5.390625 0.9375 -6.296875 C 0.9375 -7.179688 1.101562 -8.019531 1.4375 -8.8125 C 1.769531 -9.601562 2.21875 -10.289062 2.78125 -10.875 C 3.351562 -11.46875 4.019531 -11.929688 4.78125 -12.265625 C 5.550781 -12.609375 6.367188 -12.78125 7.234375 -12.78125 C 8.097656 -12.78125 8.910156 -12.609375 9.671875 -12.265625 C 10.441406 -11.929688 11.109375 -11.46875 11.671875 -10.875 C 12.242188 -10.289062 12.695312 -9.609375 13.03125 -8.828125 C 13.363281 -8.046875 13.53125 -7.203125 13.53125 -6.296875 C 13.53125 -5.410156 13.363281 -4.570312 13.03125 -3.78125 C 12.695312 -3 12.242188 -2.3125 11.671875 -1.71875 C 11.109375 -1.132812 10.441406 -0.671875 9.671875 -0.328125 C 8.910156 0.015625 8.097656 0.1875 7.234375 0.1875 Z M 7.234375 -1.109375 C 7.921875 -1.109375 8.566406 -1.238281 9.171875 -1.5 C 9.773438 -1.769531 10.289062 -2.132812 10.71875 -2.59375 C 11.15625 -3.0625 11.5 -3.609375 11.75 -4.234375 C 12 -4.867188 12.125 -5.554688 12.125 -6.296875 C 12.125 -7.035156 12 -7.71875 11.75 -8.34375 C 11.5 -8.976562 11.15625 -9.53125 10.71875 -10 C 10.289062 -10.46875 9.773438 -10.832031 9.171875 -11.09375 C 8.566406 -11.351562 7.921875 -11.484375 7.234375 -11.484375 C 6.535156 -11.484375 5.890625 -11.351562 5.296875 -11.09375 C 4.703125 -10.832031 4.1875 -10.46875 3.75 -10 C 3.3125 -9.53125 2.96875 -8.976562 2.71875 -8.34375 C 2.46875 -7.71875 2.34375 -7.035156 2.34375 -6.296875 C 2.34375 -5.554688 2.46875 -4.867188 2.71875 -4.234375 C 2.96875 -3.609375 3.3125 -3.0625 3.75 -2.59375 C 4.1875 -2.132812 4.703125 -1.769531 5.296875 -1.5 C 5.890625 -1.238281 6.535156 -1.109375 7.234375 -1.109375 Z M 7.234375 -1.109375 "/></g></g></g><g fill="#000000" fill-opacity="1"><g transform="translate(152.318219, 24.066909)"><g><path d="M 1.6875 -12.59375 L 4.703125 -12.59375 C 5.328125 -12.59375 5.90625 -12.5 6.4375 -12.3125 C 6.96875 -12.132812 7.425781 -11.878906 7.8125 -11.546875 C 8.195312 -11.210938 8.492188 -10.820312 8.703125 -10.375 C 8.910156 -9.925781 9.015625 -9.429688 9.015625 -8.890625 C 9.015625 -8.453125 8.945312 -8.039062 8.8125 -7.65625 C 8.675781 -7.28125 8.484375 -6.9375 8.234375 -6.625 C 7.984375 -6.320312 7.679688 -6.054688 7.328125 -5.828125 C 6.972656 -5.609375 6.59375 -5.445312 6.1875 -5.34375 L 9.78125 0 L 8.203125 0 L 4.703125 -5.1875 L 3 -5.1875 L 3 0 L 1.6875 0 Z M 4.703125 -6.40625 C 5.597656 -6.40625 6.320312 -6.628906 6.875 -7.078125 C 7.425781 -7.535156 7.703125 -8.144531 7.703125 -8.90625 C 7.703125 -9.65625 7.425781 -10.253906 6.875 -10.703125 C 6.320312 -11.148438 5.597656 -11.375 4.703125 -11.375 L 3 -11.375 L 3 -6.40625 Z M 4.703125 -6.40625 "/></g></g></g><g fill="#000000" fill-opacity="1"><g transform="translate(162.840247, 24.066909)"><g><path d="M 5.359375 -12.96875 L 5.734375 -12.96875 L 10.53125 0 L 9.078125 0 L 7.890625 -3.3125 L 3.125 -3.3125 L 1.9375 0 L 0.5625 0 Z M 7.46875 -4.53125 L 5.5 -9.984375 L 3.546875 -4.53125 Z M 7.46875 -4.53125 "/></g></g></g><g fill="#000000" fill-opacity="1"><g transform="translate(173.925959, 24.066909)"><g><path d="M 1.6875 -12.59375 L 3 -12.59375 L 3 -1.21875 L 8.078125 -1.21875 L 8.078125 0 L 1.6875 0 Z M 1.6875 -12.59375 "/></g></g></g><g fill="#000000" fill-opacity="1"><g transform="translate(182.850892, 24.066909)"><g><path d="M 1.6875 -12.59375 L 8.171875 -12.59375 L 8.171875 -11.375 L 3 -11.375 L 3 -7.140625 L 6.953125 -7.140625 L 6.953125 -5.921875 L 3 -5.921875 L 3 -1.21875 L 8.265625 -1.21875 L 8.265625 0 L 1.6875 0 Z M 1.6875 -12.59375 "/></g></g></g><g fill="#000000" fill-opacity="1"><g transform="translate(192.245561, 24.066909)"><g><path d="M 4.71875 0.1875 C 3.863281 0.1875 3.078125 -0.015625 2.359375 -0.421875 C 1.640625 -0.828125 1.039062 -1.414062 0.5625 -2.1875 L 1.578125 -3 C 2.453125 -1.675781 3.503906 -1.015625 4.734375 -1.015625 C 5.472656 -1.015625 6.066406 -1.210938 6.515625 -1.609375 C 6.972656 -2.015625 7.203125 -2.550781 7.203125 -3.21875 C 7.203125 -3.789062 7 -4.28125 6.59375 -4.6875 C 6.1875 -5.101562 5.53125 -5.492188 4.625 -5.859375 C 3.476562 -6.296875 2.648438 -6.8125 2.140625 -7.40625 C 1.640625 -8 1.390625 -8.703125 1.390625 -9.515625 C 1.390625 -10.003906 1.46875 -10.445312 1.625 -10.84375 C 1.789062 -11.25 2.023438 -11.59375 2.328125 -11.875 C 2.628906 -12.164062 2.988281 -12.390625 3.40625 -12.546875 C 3.832031 -12.703125 4.300781 -12.78125 4.8125 -12.78125 C 6.25 -12.78125 7.441406 -12.140625 8.390625 -10.859375 L 7.375 -10.03125 C 6.988281 -10.5625 6.585938 -10.945312 6.171875 -11.1875 C 5.753906 -11.4375 5.296875 -11.5625 4.796875 -11.5625 C 4.148438 -11.5625 3.640625 -11.382812 3.265625 -11.03125 C 2.890625 -10.675781 2.703125 -10.207031 2.703125 -9.625 C 2.703125 -9.0625 2.894531 -8.582031 3.28125 -8.1875 C 3.664062 -7.789062 4.300781 -7.414062 5.1875 -7.0625 C 6.332031 -6.625 7.171875 -6.101562 7.703125 -5.5 C 8.242188 -4.894531 8.515625 -4.171875 8.515625 -3.328125 C 8.515625 -2.816406 8.421875 -2.34375 8.234375 -1.90625 C 8.046875 -1.476562 7.78125 -1.101562 7.4375 -0.78125 C 7.101562 -0.46875 6.703125 -0.226562 6.234375 -0.0625 C 5.773438 0.101562 5.269531 0.1875 4.71875 0.1875 Z M 4.71875 0.1875 "/></g></g></g></svg>